<svg width="24" height="18" viewBox="0 0 24 18" fill="none" xmlns="http://www.w3.org/2000/svg">
<path d="M0 17.8815H23.9997V0H0V17.8815Z" fill="white"/>
<path d="M23.4403 0L14.4101 6.4519H16.0616L24.0002 0.774878V0H23.4403Z" fill="#BD0034"/>
<path d="M15.6953 11.7422L23.9982 17.7305V16.5609L17.3499 11.7422H15.6953Z" fill="#BD0034"/>
<path d="M-6.10352e-05 1.3223L7.10531 6.45274H8.75994L-6.10352e-05 0.15625V1.3223Z" fill="#BD0034"/>
<path d="M8.36257 11.7422L-6.10352e-05 17.8104V17.8824H1.51537L10.0295 11.7422H8.36257Z" fill="#BD0034"/>
<path d="M13.9687 0V5.98829L22.343 0H13.9687Z" fill="#1A237B"/>
<path d="M1.86713 0L10.2476 5.98829V0H1.86713Z" fill="#1A237B"/>
<path d="M18.291 6.45228H23.9992V2.33203L18.291 6.45228Z" fill="#1A237B"/>
<path d="M18.2929 11.7422L24.0011 15.7865V11.7422H18.2929Z" fill="#1A237B"/>
<path d="M2.35541 17.8822H10.2497V12.2891L2.35541 17.8822Z" fill="#1A237B"/>
<path d="M13.9687 17.8822H21.8777L13.9687 12.2891V17.8822Z" fill="#1A237B"/>
<path d="M-6.10352e-05 11.7422V16.0218L5.90428 11.7422H-6.10352e-05Z" fill="#1A237B"/>
<path d="M0 6.45188H5.90434L0 2.17578V6.45188Z" fill="#1A237B"/>
<path d="M10.9786 0V7.54551H0V10.7346H10.9786V17.8815H13.2055V10.7346H23.9997V7.54551H13.2055V0H10.9786Z" fill="#BD0034"/>
</svg>
