<svg width="41" height="40" viewBox="0 0 41 40" fill="none" xmlns="http://www.w3.org/2000/svg">
<g clip-path="url(#clip0_18_2978)">
<circle cx="20.0997" cy="19.4659" r="15.6085" fill="white"/>
<path fill-rule="evenodd" clip-rule="evenodd" d="M9.53817 0H31.2645C36.1856 0 40.1749 3.98936 40.1749 8.91049V30.6368C40.1749 35.5579 36.1856 39.5473 31.2645 39.5473H9.53817C4.61705 39.5473 0.627686 35.5579 0.627686 30.6368V8.91049C0.627686 3.98936 4.61705 0 9.53817 0ZM20.405 32.3555C21.8139 31.7623 27.9932 27.8941 30.7615 24.7056C32.6647 22.6046 33.5916 20.479 33.5916 18.1185C33.5916 12.2235 27.6719 7.41602 20.405 7.41602C13.1259 7.41602 7.21851 12.2235 7.21851 18.1185C7.21851 23.4079 11.9024 27.8446 18.2423 28.6727C18.6749 28.7715 19.2557 28.9569 19.404 29.3277C19.54 29.6613 19.4905 30.1804 19.4411 30.5264C19.3422 31.1444 19.2804 31.5192 19.2557 31.6511L19.2485 31.6977C19.1911 32.0652 19.0571 32.923 20.405 32.3555ZM25.2906 21.3179H28.9981C29.1341 21.3179 29.2453 21.2066 29.2453 21.0707V20.1314C29.2453 19.9955 29.1341 19.8843 28.9981 19.8843H26.477V18.9079H28.9981C29.1341 18.9079 29.2453 18.7967 29.2453 18.6608V17.7215C29.2453 17.5856 29.1341 17.4744 28.9981 17.4744H26.477V16.498H28.9981C29.1341 16.498 29.2453 16.3868 29.2453 16.2509V15.3116C29.2453 15.1757 29.1341 15.0645 28.9981 15.0645H25.2906C25.1547 15.0645 25.0434 15.1757 25.0434 15.3116V21.0583V21.0707C25.0434 21.2066 25.1547 21.3179 25.2906 21.3179ZM11.5966 21.3179H11.5842C11.4483 21.3179 11.337 21.2066 11.337 21.0707V21.0583V15.3116C11.337 15.1757 11.4483 15.0645 11.5842 15.0645H12.5235C12.6594 15.0645 12.7706 15.1757 12.7706 15.3116V19.8843H15.2918C15.4277 19.8843 15.5389 19.9955 15.5389 20.1314V21.0707C15.5389 21.2066 15.4277 21.3179 15.2918 21.3179H11.5966ZM16.578 15.0645H17.5172C17.6537 15.0645 17.7644 15.1751 17.7644 15.3116V21.0707C17.7644 21.2072 17.6537 21.3179 17.5172 21.3179H16.578C16.4415 21.3179 16.3308 21.2072 16.3308 21.0707V15.3116C16.3308 15.1751 16.4415 15.0645 16.578 15.0645ZM24.141 15.3116V21.0707C24.141 21.2066 24.0298 21.3179 23.8815 21.3179H22.9546C22.9299 21.3179 22.9093 21.3137 22.8928 21.3055H22.8681V21.2931H22.8557H22.8434L22.831 21.2808C22.8228 21.2808 22.8187 21.2767 22.8187 21.2684H22.8063C22.7816 21.2519 22.761 21.2313 22.7445 21.2066L20.1121 17.6474V21.0707C20.1121 21.2066 20.0009 21.3179 19.8526 21.3179H18.9257C18.7898 21.3179 18.6662 21.2066 18.6662 21.0707V15.3116C18.6662 15.1757 18.7898 15.0645 18.9257 15.0645H19.8526H19.865H19.8773H19.8897H19.9021H19.9144H19.9268C19.9268 15.0727 19.9309 15.0768 19.9391 15.0768H19.9515L19.9638 15.0892H19.9886V15.1015C19.9968 15.1015 20.0009 15.1056 20.0009 15.1139H20.0133L20.0256 15.1262L20.0504 15.151C20.0586 15.1592 20.0627 15.1674 20.0627 15.1757L22.6951 18.7226V15.3116C22.6951 15.1757 22.8187 15.0645 22.9546 15.0645H23.8815C24.0298 15.0645 24.141 15.1757 24.141 15.3116Z" fill="#06C755"/>
</g>
<defs>
<clipPath id="clip0_18_2978">
<rect x="0.627808" width="39.5473" height="39.5473" rx="19.7736" fill="white"/>
</clipPath>
</defs>
</svg>
