<svg width="40" height="40" viewBox="0 0 40 40" fill="none" xmlns="http://www.w3.org/2000/svg">
<circle cx="19.9891" cy="19.7736" r="19.7736" fill="#0077B5"/>
<path fill-rule="evenodd" clip-rule="evenodd" d="M14.8232 10.1662C14.8232 11.3972 13.8859 12.3935 12.4202 12.3935C11.0115 12.3935 10.0742 11.3972 10.1032 10.1662C10.0742 8.87541 11.0115 7.9082 12.4482 7.9082C13.8859 7.9082 14.7951 8.87541 14.8232 10.1662ZM10.221 28.4916V14.1529H14.6773V28.4907H10.221V28.4916Z" fill="white"/>
<path fill-rule="evenodd" clip-rule="evenodd" d="M18.2491 18.7299C18.2491 16.9414 18.1901 15.4167 18.1312 14.1558H22.0019L22.2077 16.1201H22.2956C22.8821 15.2109 24.3479 13.834 26.7229 13.834C29.6544 13.834 31.8535 15.7693 31.8535 19.9899V28.4945H27.3973V20.5483C27.3973 18.7 26.7528 17.44 25.1401 17.44C23.9082 17.44 23.1758 18.2902 22.883 19.1106C22.7652 19.4043 22.7071 19.814 22.7071 20.2256V28.4945H18.2509V18.7299H18.2491Z" fill="white"/>
</svg>
