<svg width="20" height="19" viewBox="0 0 20 19" fill="none" xmlns="http://www.w3.org/2000/svg">
<path fill-rule="evenodd" clip-rule="evenodd" d="M18.75 16C19.4404 16 20 16.5596 20 17.25C20 17.9404 19.4404 18.5 18.75 18.5H1.25C0.559644 18.5 0 17.9404 0 17.25C0 16.5596 0.559644 16 1.25 16H18.75ZM18.75 8C19.4404 8 20 8.55964 20 9.25C20 9.94036 19.4404 10.5 18.75 10.5H1.25C0.559644 10.5 0 9.94036 0 9.25C0 8.55964 0.559644 8 1.25 8H18.75ZM18.75 0C19.4404 0 20 0.559644 20 1.25C20 1.94036 19.4404 2.5 18.75 2.5H1.25C0.559644 2.5 0 1.94036 0 1.25C0 0.559644 0.559644 0 1.25 0H18.75Z" fill="#2F2F2F"/>
</svg>
