<svg width="40" height="40" viewBox="0 0 40 40" fill="none" xmlns="http://www.w3.org/2000/svg">
<path d="M20.2254 0H20.1354C9.24279 0 0.412598 8.8328 0.412598 19.7286V19.8187C0.412598 30.7145 9.24279 39.5473 20.1354 39.5473H20.2254C31.118 39.5473 39.9482 30.7145 39.9482 19.8187V19.7286C39.9482 8.8328 31.118 0 20.2254 0Z" fill="#0084FF"/>
<path d="M31.9508 19.7734V19.8413C31.919 25.5012 27.8716 30.23 22.5181 31.3135C22.1552 31.3855 21.7882 31.4423 21.4142 31.4825C21.0097 31.5241 20.597 31.5476 20.1814 31.5476C18.547 31.5476 16.9901 31.2137 15.5745 30.6082L10.113 31.1901C9.18076 31.2899 8.49237 30.338 8.87882 29.4846L10.347 26.2327C9.12398 24.3775 8.41064 22.1565 8.41064 19.7734C8.41064 13.2835 13.6921 8.00049 20.1814 8.00049C26.3175 8.00049 31.3719 12.7224 31.9037 18.7245C31.9356 19.0681 31.9508 19.4214 31.9508 19.7734Z" fill="white"/>
<path d="M25.8389 16.3354C26.3666 15.9031 27.091 16.5501 26.7198 17.1224L24.2488 20.9353L22.9412 22.9527C22.6628 23.3822 22.0783 23.4847 21.6697 23.1758L19.5019 21.5311L18.1653 20.5183C18.0572 20.4366 17.9063 20.4393 17.801 20.5252L14.521 23.2021C13.9933 23.633 13.2703 22.9859 13.6415 22.4137L15.956 18.8446L17.2636 16.8272C17.542 16.3977 18.1265 16.2952 18.5351 16.6042L20.6391 18.1989L21.9744 19.2104C22.0838 19.2921 22.2348 19.2893 22.3401 19.2034L25.8389 16.334V16.3354Z" fill="#0084FF"/>
</svg>
