<svg width="28" height="28" viewBox="0 0 28 28" fill="none" xmlns="http://www.w3.org/2000/svg">
<path fill-rule="evenodd" clip-rule="evenodd" d="M11.4709 0.105469C17.7491 0.105469 22.8386 5.20223 22.8386 11.4894C22.8386 14.0295 22.0078 16.3754 20.6035 18.2693L27.3641 25.0378C28.017 25.6915 28.017 26.7515 27.3641 27.4053C26.7548 28.0155 25.7921 28.0562 25.1357 27.5274L24.9999 27.4053L18.2411 20.6351C16.3499 22.0414 14.0074 22.8733 11.4709 22.8733C5.1927 22.8733 0.10321 17.7766 0.10321 11.4894C0.10321 5.20223 5.1927 0.105469 11.4709 0.105469ZM11.4709 3.45368C7.03923 3.45368 3.44665 7.05139 3.44665 11.4894C3.44665 15.9274 7.03923 19.5251 11.4709 19.5251C13.6417 19.5251 15.6113 18.6618 17.0558 17.2594C17.0798 17.2267 17.1086 17.1956 17.1388 17.1654L17.2327 17.0822C18.6331 15.6357 19.4952 13.6633 19.4952 11.4894C19.4952 7.05139 15.9026 3.45368 11.4709 3.45368Z" fill="#656565"/>
</svg>
