<svg width="40" height="40" viewBox="0 0 40 40" fill="none" xmlns="http://www.w3.org/2000/svg">
<rect x="0.0402832" width="39.5472" height="39.5472" rx="19.7736" fill="url(#paint0_linear_18_2989)"/>
<path d="M7.81921 31.2778L9.51469 25.121C8.46647 23.3139 7.91659 21.2673 7.92232 19.1751C7.92232 12.6193 13.2837 7.28906 19.8651 7.28906C23.0613 7.28906 26.0628 8.52613 28.3139 10.7722C30.5707 13.0183 31.8137 16.0055 31.8079 19.1808C31.8079 25.7367 26.4466 31.0669 19.8594 31.0669H19.8537C17.8546 31.0669 15.8899 30.5652 14.1429 29.6189L7.81921 31.2778ZM14.4465 27.4697L14.8073 27.6863C16.331 28.5871 18.078 29.0602 19.8594 29.0659H19.8651C25.3353 29.0659 29.7917 24.6364 29.7917 19.1865C29.7917 16.5471 28.7607 14.0673 26.8876 12.1974C25.0146 10.3276 22.5172 9.30143 19.8651 9.30143C14.3949 9.29573 9.93856 13.7252 9.93856 19.1751C9.93856 21.0393 10.4598 22.8578 11.4565 24.4312L11.6913 24.8075L10.6889 28.4502L14.4465 27.4697Z" fill="white"/>
<path d="M8.2373 30.8615L9.8755 24.9156C8.86165 23.1769 8.32895 21.1988 8.32895 19.1807C8.33468 12.8529 13.507 7.70508 19.8651 7.70508C22.9525 7.70508 25.8451 8.90224 28.0217 11.0685C30.1983 13.2348 31.3955 16.1194 31.3955 19.1864C31.3955 25.5142 26.2174 30.662 19.8651 30.662H19.8594C17.929 30.662 16.0331 30.1774 14.349 29.2653L8.2373 30.8615Z" fill="url(#paint1_linear_18_2989)"/>
<path d="M7.81921 31.2778L9.51469 25.121C8.46647 23.3139 7.91659 21.2673 7.92232 19.1751C7.92232 12.6193 13.2837 7.28906 19.8651 7.28906C23.0613 7.28906 26.0628 8.52613 28.3139 10.7722C30.5707 13.0183 31.8137 16.0055 31.8079 19.1808C31.8079 25.7367 26.4466 31.0669 19.8594 31.0669H19.8537C17.8546 31.0669 15.8899 30.5652 14.1429 29.6189L7.81921 31.2778ZM14.4465 27.4697L14.8073 27.6863C16.331 28.5871 18.078 29.0602 19.8594 29.0659H19.8651C25.3353 29.0659 29.7917 24.6364 29.7917 19.1865C29.7917 16.5471 28.7607 14.0673 26.8876 12.1974C25.0146 10.3276 22.5172 9.30143 19.8651 9.30143C14.3949 9.29573 9.93856 13.7252 9.93856 19.1751C9.93856 21.0393 10.4598 22.8578 11.4565 24.4312L11.6913 24.8075L10.6889 28.4502L14.4465 27.4697Z" fill="url(#paint2_linear_18_2989)"/>
<path fill-rule="evenodd" clip-rule="evenodd" d="M16.8807 14.2043C16.6573 13.7084 16.4225 13.6969 16.2105 13.6912C16.0387 13.6855 15.8382 13.6855 15.6378 13.6855C15.4373 13.6855 15.1165 13.7597 14.8416 14.0561C14.5666 14.3525 13.7991 15.0708 13.7991 16.5359C13.7991 17.9953 14.8702 19.4091 15.0191 19.6086C15.1681 19.8082 17.0869 22.9037 20.117 24.0951C22.6373 25.087 23.1528 24.8875 23.697 24.8362C24.2412 24.7849 25.4612 24.1179 25.7132 23.4224C25.9596 22.7269 25.9596 22.1341 25.8851 22.0086C25.8106 21.8832 25.6101 21.8091 25.3123 21.6609C25.0144 21.5127 23.5481 20.7944 23.2731 20.6918C22.9982 20.5949 22.7977 20.5436 22.603 20.84C22.4025 21.1364 21.8297 21.8034 21.6578 22.0029C21.486 22.2025 21.3084 22.2253 21.0106 22.0771C20.7127 21.9288 19.7504 21.6153 18.6106 20.6006C17.7227 19.8139 17.1213 18.839 16.9495 18.5426C16.7776 18.2461 16.9323 18.0865 17.0812 17.9383C17.2129 17.8072 17.3791 17.5906 17.528 17.4195C17.6769 17.2485 17.7285 17.1231 17.8258 16.9236C17.9232 16.724 17.8774 16.553 17.8029 16.4048C17.7285 16.2623 17.1442 14.7915 16.8807 14.2043Z" fill="white"/>
<defs>
<linearGradient id="paint0_linear_18_2989" x1="19.8129" y1="39.5453" x2="19.8129" y2="-0.00138366" gradientUnits="userSpaceOnUse">
<stop stop-color="#20B038"/>
<stop offset="1" stop-color="#60D66A"/>
</linearGradient>
<linearGradient id="paint1_linear_18_2989" x1="19.8158" y1="30.8604" x2="19.8158" y2="7.70427" gradientUnits="userSpaceOnUse">
<stop stop-color="#20B038"/>
<stop offset="1" stop-color="#60D66A"/>
</linearGradient>
<linearGradient id="paint2_linear_18_2989" x1="19.8159" y1="31.2756" x2="19.8159" y2="7.28906" gradientUnits="userSpaceOnUse">
<stop stop-color="#F9F9F9"/>
<stop offset="1" stop-color="white"/>
</linearGradient>
</defs>
</svg>
