<svg width="41" height="40" viewBox="0 0 41 40" fill="none" xmlns="http://www.w3.org/2000/svg">
<path d="M40.3477 19.7743C40.3477 29.7612 32.947 38.0176 23.3328 39.3574C22.4339 39.4821 21.5142 39.5473 20.5806 39.5473C19.503 39.5473 18.4447 39.4614 17.4142 39.2951C8.00227 37.7793 0.813477 29.6158 0.813477 19.7743C0.813477 8.85355 9.66442 0 20.582 0C31.4995 0 40.3505 8.85355 40.3505 19.7743H40.3477Z" fill="#1C1C1B"/>
<path d="M8.83072 8.72144L17.9476 20.9141L8.77393 30.8276H10.8392L18.8715 22.1486L25.3608 30.8276H32.3875L22.7581 17.9491L31.2974 8.72144H29.2322L21.8356 16.7146L15.8588 8.72144H8.83209H8.83072ZM11.8669 10.2428H15.0942L29.3486 29.3063H26.1212L11.8669 10.2428Z" fill="white"/>
</svg>
